# Blender v2.74 (sub 0) OBJ File: 'fighter.blend'
# www.blender.org
mtllib fighter.mtl
o Cube
v 0.165673 -0.026108 -0.069081
v 0.164951 -0.024377 0.071356
v -0.008742 -0.021860 -0.072236
v 0.167922 0.046338 -0.072034
v 0.167201 0.048570 0.070406
v -0.006493 0.050587 0.071401
v -0.006493 0.050587 -0.075189
v -0.008742 -0.022360 0.072351
v -0.692391 -0.005205 0.000746
v 0.276676 0.027295 0.022449
v 0.276676 0.026480 -0.035688
v 0.276676 -0.016326 -0.035357
v 0.276676 -0.016326 0.022765
v -0.037573 0.059980 -0.000660
v -0.038857 -0.039382 -0.001971
v 0.276677 0.033508 -0.006202
v 0.276676 -0.021887 -0.005880
v 0.179365 0.062903 -0.004246
v 0.127695 -0.039790 -0.006160
v 0.014187 -0.003366 0.092649
v 0.014187 0.027496 0.092649
v 0.014187 -0.003366 -0.098682
v 0.014187 0.027496 -0.098682
v 0.151015 -0.003366 0.092649
v 0.151015 0.027496 0.092649
v 0.151015 -0.003366 -0.098682
v 0.151015 0.027496 -0.098682
v 0.013279 0.040822 0.073163
v 0.013279 0.027948 0.073163
v 0.159338 0.040822 0.070575
v 0.159338 0.027948 0.070575
v 0.013472 0.040822 0.091305
v 0.013472 0.027948 0.091305
v 0.159530 0.040822 0.088718
v 0.159530 0.027948 0.088718
v -0.278348 0.029473 0.085471
v 0.285132 0.026382 0.077617
v 0.012203 0.042014 -0.095115
v 0.012225 0.029142 -0.095357
v 0.158264 0.042217 -0.092659
v 0.158286 0.029346 -0.092901
v 0.011770 0.041672 -0.076980
v 0.011792 0.028800 -0.077222
v 0.157831 0.041875 -0.074524
v 0.157853 0.029004 -0.074766
v -0.279655 0.030125 -0.093094
v 0.283765 0.027780 -0.081553
v 0.010869 -0.005104 -0.091356
v 0.010891 -0.017975 -0.091598
v 0.156930 -0.004900 -0.088900
v 0.156952 -0.017772 -0.089142
v 0.010436 -0.005445 -0.073221
v 0.010458 -0.018317 -0.073463
v 0.156497 -0.005242 -0.070766
v 0.156519 -0.018113 -0.071008
v -0.280989 -0.016992 -0.089335
v 0.282431 -0.019337 -0.077794
v 0.282431 -0.019337 0.081897
v -0.280989 -0.016992 0.070356
v 0.156519 -0.018113 0.088684
v 0.156497 -0.005242 0.088926
v 0.010458 -0.018317 0.086228
v 0.010436 -0.005445 0.086470
v 0.156952 -0.017772 0.070549
v 0.156930 -0.004900 0.070791
v 0.010891 -0.017975 0.068093
v 0.010869 -0.005104 0.068335
v 0.061394 -0.004325 0.365226
v 0.108790 -0.004325 0.365226
v 0.061394 0.007791 0.365226
v 0.108790 0.007791 0.365226
v 0.061394 -0.004325 -0.365226
v 0.108790 -0.004325 -0.365226
v 0.061394 0.007791 -0.365226
v 0.108790 0.007791 -0.365226
vn -0.049700 -0.969000 0.242100
vn -0.097300 0.980700 0.169800
vn 0.005900 0.012800 0.999900
vn -0.051500 -0.963600 -0.262400
vn -0.107000 -0.037200 -0.993600
vn -0.098100 0.981500 -0.164600
vn -0.103800 0.016200 0.994500
vn 0.017100 -0.041300 -0.999000
vn 0.265000 0.929500 -0.256600
vn 0.400100 0.002200 0.916500
vn 0.281800 0.934200 0.219000
vn 0.302200 -0.033000 -0.952700
vn 0.125400 -0.980700 0.149800
vn 0.124400 -0.980400 -0.153000
vn -0.014000 -0.971900 -0.234900
vn -0.003800 -0.977600 0.210500
vn -0.000400 0.987200 0.159700
vn 0.003100 0.983800 -0.179000
vn -1.000000 0.000000 0.000000
vn 1.000000 0.000000 0.000000
vn 0.000000 0.000000 1.000000
vn 0.000000 -1.000000 0.000000
vn 0.000000 1.000000 0.000000
vn 0.000000 0.000000 -1.000000
vn 0.017700 0.000000 0.999800
vn -0.017700 0.000000 -0.999800
vn 0.999900 0.000000 -0.010600
vn -0.999900 0.000000 0.010600
vn 0.005200 1.000000 -0.000100
vn 0.042200 0.000000 0.999100
vn 0.038900 -0.999200 -0.000400
vn 0.020000 0.000000 -0.999800
vn 0.114100 0.993500 -0.001200
vn -0.012500 -0.999900 0.000100
vn 0.088000 0.000000 0.996100
vn 0.055900 0.000000 -0.998400
vn -0.016800 -0.018800 0.999700
vn 0.016800 0.018800 -0.999700
vn 0.999700 0.001300 0.023900
vn 0.001700 -0.999800 -0.018800
vn -0.001700 0.999800 0.018800
vn -0.999700 -0.001300 -0.023900
vn 0.003500 0.999800 0.018900
vn 0.007700 -0.018800 0.999800
vn 0.040600 -0.999000 -0.017900
vn 0.054500 0.018900 -0.998300
vn 0.112400 0.993400 0.021400
vn -0.010700 -0.999800 -0.019100
vn 0.053600 -0.018700 0.998400
vn 0.090300 0.018900 -0.995700
vn 0.988200 0.000000 0.153100
vn -0.000000 0.997400 0.072100
vn -0.985300 0.000000 0.170600
vn 0.000000 -1.000000 -0.003500
vn 0.984700 0.000000 0.174400
vn -0.987700 0.000000 0.156500
vn 0.000000 -0.997300 0.073700
vn 0.000000 1.000000 -0.003600
usemtl Material
s off
f 15//1 8//1 9//1
f 6//2 14//2 9//2
f 2//3 5//3 6//3 8//3
f 3//4 15//4 9//4
f 7//5 3//5 9//5
f 9//6 14//6 7//6
f 6//7 9//7 8//7
f 3//8 7//8 4//8 1//8
f 4//9 18//9 16//9 11//9
f 5//10 2//10 13//10 10//10
f 16//11 18//11 5//11 10//11
f 1//12 4//12 11//12 12//12
f 17//13 13//13 2//13 19//13
f 17//14 19//14 1//14 12//14
f 1//15 19//15 15//15 3//15
f 15//16 19//16 2//16 8//16
f 5//17 18//17 14//17 6//17
f 4//18 7//18 14//18 18//18
f 21//19 23//19 22//19 20//19
f 27//20 25//20 24//20 26//20
f 25//21 21//21 20//21 24//21
f 20//22 22//22 26//22 24//22
f 25//23 27//23 23//23 21//23
f 22//24 23//24 27//24 26//24
f 34//25 32//25 33//25 35//25
f 28//26 30//26 31//26 29//26
f 30//27 34//27 35//27 31//27
f 35//22 33//22 29//22 31//22
f 30//23 28//23 32//23 34//23
f 33//28 32//28 28//28 29//28
f 33//29 29//29 36//29
f 29//30 28//30 36//30
f 28//31 32//31 36//31
f 36//32 32//32 33//32
f 30//33 34//33 37//33
f 35//34 31//34 37//34
f 35//35 37//35 34//35
f 30//36 37//36 31//36
f 44//37 42//37 43//37 45//37
f 38//38 40//38 41//38 39//38
f 40//39 44//39 45//39 41//39
f 45//40 43//40 39//40 41//40
f 40//41 38//41 42//41 44//41
f 43//42 42//42 38//42 39//42
f 43//43 39//43 46//43
f 39//44 38//44 46//44
f 38//45 42//45 46//45
f 46//46 42//46 43//46
f 40//47 44//47 47//47
f 45//48 41//48 47//48
f 45//49 47//49 44//49
f 40//50 47//50 41//50
f 54//37 52//37 53//37 55//37
f 48//38 50//38 51//38 49//38
f 50//39 54//39 55//39 51//39
f 55//40 53//40 49//40 51//40
f 50//41 48//41 52//41 54//41
f 53//42 52//42 48//42 49//42
f 53//43 49//43 56//43
f 49//44 48//44 56//44
f 48//45 52//45 56//45
f 56//46 52//46 53//46
f 50//47 54//47 57//47
f 55//48 51//48 57//48
f 55//49 57//49 54//49
f 50//50 57//50 51//50
f 65//50 58//50 64//50
f 60//49 58//49 61//49
f 60//48 64//48 58//48
f 65//47 61//47 58//47
f 59//46 63//46 62//46
f 67//45 63//45 59//45
f 66//44 67//44 59//44
f 62//43 66//43 59//43
f 62//42 63//42 67//42 66//42
f 65//41 67//41 63//41 61//41
f 60//40 62//40 66//40 64//40
f 65//39 61//39 60//39 64//39
f 67//38 65//38 64//38 66//38
f 61//37 63//37 62//37 60//37
f 68//21 69//21 71//21 70//21
f 69//51 24//51 25//51 71//51
f 71//52 25//52 21//52 70//52
f 20//53 68//53 70//53 21//53
f 68//54 20//54 24//54 69//54
f 72//21 73//21 75//21 74//21
f 22//55 72//55 74//55 23//55
f 73//56 26//56 27//56 75//56
f 23//57 74//57 75//57 27//57
f 26//58 73//58 72//58 22//58
