# Blender v2.74 (sub 0) OBJ File: 'fighter.blend'
# www.blender.org
mtllib fighter.mtl
o Cube
v 0.151557 0.013890 -0.097508
v 0.148433 0.012472 0.091982
v 0.018667 0.018139 -0.098841
v 0.014521 0.014489 0.092977
v -0.692391 -0.005205 0.000746
v 0.276676 0.027295 0.022449
v 0.276676 0.026480 -0.035688
v 0.276676 -0.016326 -0.035357
v 0.276676 -0.016326 0.022765
v -0.037573 0.059980 -0.000660
v -0.038857 -0.039382 -0.001971
v 0.276677 0.033508 -0.006202
v 0.276676 -0.021887 -0.005880
v 0.179365 0.062903 -0.004246
v 0.127695 -0.039790 -0.006160
v 0.014187 -0.003366 0.092649
v 0.014187 0.027496 0.092649
v 0.014187 -0.003366 -0.098682
v 0.014187 0.027496 -0.098682
v 0.151015 -0.003366 0.092649
v 0.151015 0.027496 0.092649
v 0.151015 -0.003366 -0.098682
v 0.151015 0.027496 -0.098682
v 0.013279 0.040822 0.073163
v 0.013279 0.027948 0.073163
v 0.159338 0.040822 0.070575
v 0.159338 0.027948 0.070575
v 0.013472 0.040822 0.091305
v 0.013472 0.027948 0.091305
v 0.159530 0.040822 0.088718
v 0.159530 0.027948 0.088718
v -0.278348 0.029473 0.085471
v 0.285132 0.032258 0.077617
v 0.012203 0.042014 -0.095115
v 0.012225 0.029142 -0.095357
v 0.158264 0.042217 -0.092659
v 0.158286 0.029346 -0.092901
v 0.011770 0.041672 -0.076980
v 0.011792 0.028800 -0.077222
v 0.157831 0.041875 -0.074524
v 0.157853 0.029004 -0.074766
v -0.279655 0.030125 -0.093094
v 0.283765 0.033656 -0.081553
v 0.010869 -0.005104 -0.091356
v 0.010891 -0.017975 -0.091598
v 0.156930 -0.004900 -0.088900
v 0.156952 -0.017772 -0.089142
v 0.010436 -0.005445 -0.073221
v 0.010458 -0.018317 -0.073463
v 0.156497 -0.005242 -0.070766
v 0.156519 -0.018113 -0.071008
v -0.280989 -0.016992 -0.089335
v 0.282431 -0.013461 -0.077794
v 0.282431 -0.013461 0.081897
v -0.280989 -0.016992 0.070356
v 0.156519 -0.018113 0.088684
v 0.156497 -0.005242 0.088926
v 0.010458 -0.018317 0.086228
v 0.010436 -0.005445 0.086470
v 0.156952 -0.017772 0.070549
v 0.156930 -0.004900 0.070791
v 0.010891 -0.017975 0.068093
v 0.010869 -0.005104 0.068335
v 0.061394 -0.004325 0.365226
v 0.108790 -0.004325 0.365226
v 0.061394 0.007791 0.365226
v 0.108790 0.007791 0.365226
v 0.061394 -0.004325 -0.365226
v 0.108790 -0.004325 -0.365226
v 0.061394 0.007791 -0.365226
v 0.108790 0.007791 -0.365226
v -0.007299 0.014508 -0.072665
vn -0.042800 -0.858400 0.511100
vn -0.046500 -0.846600 -0.530300
vn 0.016800 0.883400 0.468400
vn -0.116800 -0.975000 0.189300
vn 0.105300 -0.869100 -0.483200
vn -0.015100 -0.855800 -0.517100
vn -0.009800 -0.881800 0.471600
vn -0.086200 0.876400 0.473800
vn -1.000000 0.000000 0.000000
vn 1.000000 0.000000 0.000000
vn 0.000000 0.000000 1.000000
vn 0.000000 -1.000000 0.000000
vn 0.000000 1.000000 0.000000
vn 0.000000 0.000000 -1.000000
vn 0.017700 0.000000 0.999800
vn -0.017700 0.000000 -0.999800
vn 0.999900 0.000000 -0.010600
vn -0.999900 0.000000 0.010600
vn 0.005200 1.000000 -0.000100
vn 0.042200 0.000000 0.999100
vn 0.038900 -0.999200 -0.000400
vn 0.020000 0.000000 -0.999800
vn 0.068000 0.997700 -0.000700
vn 0.034300 -0.999400 -0.000400
vn 0.088000 0.000000 0.996100
vn 0.055900 0.000000 -0.998400
vn -0.016800 -0.018800 0.999700
vn 0.016800 0.018800 -0.999700
vn 0.999700 0.001300 0.023900
vn 0.001700 -0.999800 -0.018800
vn -0.001700 0.999800 0.018800
vn -0.999700 -0.001300 -0.023900
vn 0.003500 0.999800 0.018900
vn 0.007700 -0.018800 0.999800
vn 0.040600 -0.999000 -0.017900
vn 0.054500 0.018900 -0.998300
vn 0.066200 0.997600 0.020400
vn 0.036000 -0.999200 -0.018000
vn 0.054500 -0.018700 0.998300
vn 0.089400 0.018900 -0.995800
vn 0.988200 0.000000 0.153100
vn 0.000000 0.997400 0.072100
vn -0.985300 0.000000 0.170600
vn 0.000000 -1.000000 -0.003500
vn 0.984700 0.000000 0.174400
vn -0.987700 0.000000 0.156500
vn 0.000000 -0.997300 0.073700
vn 0.000000 1.000000 -0.003600
vn -0.019000 0.915800 -0.401200
vn -0.090200 0.896500 -0.433700
vn 0.173200 0.848400 0.500300
vn 0.159200 0.853600 -0.496100
vn 0.443500 -0.006900 -0.896200
vn 0.476100 0.006400 0.879400
vn -0.004800 0.898400 0.439200
vn 0.105700 -0.886800 0.449900
vn -0.143700 -0.972500 -0.183500
vn -0.022400 -0.859400 -0.510800
vn 0.010200 -0.872200 0.489100
vn 0.032900 0.880600 -0.472600
vn 0.286900 0.936200 0.203000
vn 0.277800 0.934500 -0.222700
usemtl Material
s off
f 11//1 4//1 5//1
f 3//2 11//2 5//2
f 4//3 2//3 14//3
f 13//4 9//4 2//4
f 13//5 15//5 1//5
f 15//6 11//6 3//6
f 15//7 2//7 4//7
f 10//8 5//8 4//8
f 19//9 18//9 16//9
f 21//10 20//10 22//10
f 17//11 16//11 20//11
f 18//12 22//12 20//12
f 23//13 19//13 17//13
f 19//14 23//14 22//14
f 28//15 29//15 31//15
f 26//16 27//16 25//16
f 30//17 31//17 27//17
f 29//12 25//12 27//12
f 26//13 24//13 28//13
f 28//18 24//18 25//18
f 29//19 25//19 32//19
f 25//20 24//20 32//20
f 24//21 28//21 32//21
f 32//22 28//22 29//22
f 26//23 30//23 33//23
f 31//24 27//24 33//24
f 31//25 33//25 30//25
f 26//26 33//26 27//26
f 40//27 38//27 39//27
f 36//28 37//28 35//28
f 40//29 41//29 37//29
f 41//30 39//30 35//30
f 34//31 38//31 40//31
f 38//32 34//32 35//32
f 39//33 35//33 42//33
f 35//34 34//34 42//34
f 34//35 38//35 42//35
f 42//36 38//36 39//36
f 36//37 40//37 43//37
f 41//38 37//38 43//38
f 41//39 43//39 40//39
f 36//40 43//40 37//40
f 50//27 48//27 49//27
f 46//28 47//28 45//28
f 50//29 51//29 47//29
f 51//30 49//30 45//30
f 44//31 48//31 50//31
f 48//32 44//32 45//32
f 49//33 45//33 52//33
f 45//34 44//34 52//34
f 44//35 48//35 52//35
f 52//36 48//36 49//36
f 46//37 50//37 53//37
f 51//38 47//38 53//38
f 51//39 53//39 50//39
f 46//40 53//40 47//40
f 61//40 54//40 60//40
f 56//39 54//39 57//39
f 56//38 60//38 54//38
f 61//37 57//37 54//37
f 55//36 59//36 58//36
f 63//35 59//35 55//35
f 62//34 63//34 55//34
f 58//33 62//33 55//33
f 59//32 63//32 62//32
f 63//31 59//31 57//31
f 56//30 58//30 62//30
f 57//29 56//29 60//29
f 61//28 60//28 62//28
f 57//27 59//27 58//27
f 65//11 67//11 66//11
f 20//41 21//41 67//41
f 21//42 17//42 66//42
f 16//43 64//43 66//43
f 64//44 16//44 20//44
f 69//11 71//11 70//11
f 18//45 68//45 70//45
f 22//46 23//46 71//46
f 70//47 71//47 23//47
f 22//48 69//48 68//48
f 3//49 10//49 14//49
f 5//50 10//50 3//50
f 14//51 2//51 6//51
f 7//52 1//52 14//52
f 8//53 1//53 7//53
f 9//54 6//54 2//54
f 10//55 4//55 14//55
f 15//56 13//56 2//56
f 8//57 13//57 1//57
f 1//58 15//58 3//58
f 11//59 15//59 4//59
f 17//9 19//9 16//9
f 23//10 21//10 22//10
f 21//11 17//11 20//11
f 16//12 18//12 20//12
f 21//13 23//13 17//13
f 18//14 19//14 22//14
f 30//15 28//15 31//15
f 24//16 26//16 25//16
f 26//17 30//17 27//17
f 31//12 29//12 27//12
f 30//13 26//13 28//13
f 29//18 28//18 25//18
f 41//27 40//27 39//27
f 34//28 36//28 35//28
f 36//29 40//29 37//29
f 37//30 41//30 35//30
f 36//31 34//31 40//31
f 39//32 38//32 35//32
f 51//27 50//27 49//27
f 44//28 46//28 45//28
f 46//29 50//29 47//29
f 47//30 51//30 45//30
f 46//31 44//31 50//31
f 49//32 48//32 45//32
f 58//32 59//32 62//32
f 61//31 63//31 57//31
f 60//30 56//30 62//30
f 61//29 57//29 60//29
f 63//28 61//28 62//28
f 56//27 57//27 58//27
f 64//11 65//11 66//11
f 65//41 20//41 67//41
f 67//42 21//42 66//42
f 17//43 16//43 66//43
f 65//44 64//44 20//44
f 68//11 69//11 70//11
f 19//45 18//45 70//45
f 69//46 22//46 71//46
f 19//47 70//47 23//47
f 18//48 22//48 68//48
f 1//60 3//60 14//60
f 12//61 14//61 6//61
f 12//62 7//62 14//62
