# Blender v2.74 (sub 0) OBJ File: 'fighter.blend'
# www.blender.org
mtllib fighter.mtl
o Cube
v 5.504894 -0.304533 -0.942501
v 5.495052 -0.280920 0.973544
v 3.125264 -0.246567 -0.985553
v 5.535589 0.683893 -0.982792
v 5.525746 0.714337 0.960581
v 3.155960 0.741858 0.974155
v 3.155959 0.741858 -1.025845
v 3.125265 -0.253399 0.987119
v -6.202105 -0.019335 0.010183
v 7.019377 0.424067 0.306278
v 7.019377 0.412958 -0.486909
v 7.019377 -0.171065 -0.482398
v 7.019377 -0.171065 0.310595
v 2.731918 0.870007 -0.009003
v 2.714398 -0.485636 -0.026888
v 7.019379 0.508846 -0.084620
v 7.019377 -0.246944 -0.080224
v 5.691708 0.909894 -0.057937
v 4.986745 -0.491196 -0.084049
v 3.438095 0.005755 1.264056
v 3.438095 0.426819 1.264056
v 3.438095 0.005755 -1.346364
v 3.438095 0.426819 -1.346364
v 5.304909 0.005755 1.264056
v 5.304909 0.426819 1.264056
v 5.304909 0.005755 -1.346364
v 5.304909 0.426819 -1.346364
v 3.425715 0.608630 0.998196
v 3.425715 0.432985 0.998196
v 5.418467 0.608630 0.962896
v 5.418467 0.432985 0.962896
v 3.428341 0.608630 1.245719
v 3.428341 0.432985 1.245719
v 5.421093 0.608630 1.210419
v 5.421093 0.432985 1.210419
v -0.553097 0.453787 1.166130
v 7.134736 0.411615 1.058966
v 3.411036 0.624886 -1.297698
v 3.411336 0.449272 -1.300999
v 5.403817 0.627664 -1.264193
v 5.404117 0.452050 -1.267495
v 3.405124 0.620224 -1.050275
v 3.405424 0.444610 -1.053577
v 5.397905 0.623002 -1.016771
v 5.398205 0.447388 -1.020072
v -0.570930 0.462688 -1.270128
v 7.116086 0.430693 -1.112666
v 3.392833 -0.017959 -1.246417
v 3.393134 -0.193573 -1.249719
v 5.385614 -0.015181 -1.212913
v 5.385914 -0.190795 -1.216214
v 3.386921 -0.022621 -0.998995
v 3.387222 -0.198235 -1.002296
v 5.379702 -0.019843 -0.965490
v 5.380002 -0.195457 -0.968792
v -0.589132 -0.180157 -1.218848
v 7.097884 -0.212152 -1.061386
v 7.097884 -0.212152 1.117362
v -0.589132 -0.180157 0.959901
v 5.380002 -0.195457 1.209956
v 5.379702 -0.019843 1.213258
v 3.387222 -0.198235 1.176452
v 3.386921 -0.022621 1.179754
v 5.385914 -0.190795 0.962534
v 5.385614 -0.015181 0.965836
v 3.393134 -0.193573 0.929030
v 3.392833 -0.017959 0.932331
v 4.082166 -0.007336 4.982960
v 4.728816 -0.007336 4.982960
v 4.082166 0.157975 4.982960
v 4.728816 0.157975 4.982960
v 4.082166 -0.007336 -4.982960
v 4.728816 -0.007336 -4.982960
v 4.082166 0.157975 -4.982960
v 4.728816 0.157975 -4.982960
vn -0.049700 -0.969000 0.242100
vn -0.097300 0.980700 0.169800
vn 0.005900 0.012800 0.999900
vn -0.051500 -0.963600 -0.262400
vn -0.107000 -0.037200 -0.993600
vn -0.098100 0.981500 -0.164600
vn -0.103800 0.016200 0.994500
vn 0.017100 -0.041300 -0.999000
vn 0.265000 0.929500 -0.256600
vn 0.400100 0.002200 0.916500
vn 0.281800 0.934200 0.219000
vn 0.302200 -0.033000 -0.952700
vn 0.125400 -0.980700 0.149800
vn 0.124400 -0.980400 -0.153000
vn -0.014000 -0.971900 -0.234900
vn -0.003800 -0.977600 0.210500
vn -0.000400 0.987200 0.159700
vn 0.003100 0.983800 -0.179000
vn -1.000000 0.000000 0.000000
vn 1.000000 0.000000 0.000000
vn 0.000000 0.000000 1.000000
vn 0.000000 -1.000000 0.000000
vn 0.000000 1.000000 0.000000
vn 0.000000 0.000000 -1.000000
vn 0.017700 0.000000 0.999800
vn -0.017700 0.000000 -0.999800
vn 0.999900 0.000000 -0.010600
vn -0.999900 0.000000 0.010600
vn 0.005200 1.000000 -0.000100
vn 0.042200 0.000000 0.999100
vn 0.038900 -0.999200 -0.000400
vn 0.020000 0.000000 -0.999800
vn 0.114100 0.993500 -0.001200
vn -0.012500 -0.999900 0.000100
vn 0.088000 0.000000 0.996100
vn 0.055900 0.000000 -0.998400
vn -0.016800 -0.018800 0.999700
vn 0.016800 0.018800 -0.999700
vn 0.999700 0.001300 0.023900
vn 0.001700 -0.999800 -0.018800
vn -0.001700 0.999800 0.018800
vn -0.999700 -0.001300 -0.023900
vn 0.003500 0.999800 0.018900
vn 0.007700 -0.018800 0.999800
vn 0.040600 -0.999000 -0.017900
vn 0.054500 0.018900 -0.998300
vn 0.112400 0.993400 0.021400
vn -0.010700 -0.999800 -0.019100
vn 0.053600 -0.018700 0.998400
vn 0.090300 0.018900 -0.995700
vn 0.988200 0.000000 0.153100
vn -0.000000 0.997400 0.072100
vn -0.985300 0.000000 0.170600
vn 0.000000 -1.000000 -0.003500
vn 0.984700 0.000000 0.174400
vn -0.987700 0.000000 0.156500
vn 0.000000 -0.997300 0.073700
vn 0.000000 1.000000 -0.003600
usemtl Material
s off
f 15//1 8//1 9//1
f 6//2 14//2 9//2
f 2//3 5//3 6//3 8//3
f 3//4 15//4 9//4
f 7//5 3//5 9//5
f 9//6 14//6 7//6
f 6//7 9//7 8//7
f 3//8 7//8 4//8 1//8
f 4//9 18//9 16//9 11//9
f 5//10 2//10 13//10 10//10
f 16//11 18//11 5//11 10//11
f 1//12 4//12 11//12 12//12
f 17//13 13//13 2//13 19//13
f 17//14 19//14 1//14 12//14
f 1//15 19//15 15//15 3//15
f 15//16 19//16 2//16 8//16
f 5//17 18//17 14//17 6//17
f 4//18 7//18 14//18 18//18
f 21//19 23//19 22//19 20//19
f 27//20 25//20 24//20 26//20
f 25//21 21//21 20//21 24//21
f 20//22 22//22 26//22 24//22
f 25//23 27//23 23//23 21//23
f 22//24 23//24 27//24 26//24
f 34//25 32//25 33//25 35//25
f 28//26 30//26 31//26 29//26
f 30//27 34//27 35//27 31//27
f 35//22 33//22 29//22 31//22
f 30//23 28//23 32//23 34//23
f 33//28 32//28 28//28 29//28
f 33//29 29//29 36//29
f 29//30 28//30 36//30
f 28//31 32//31 36//31
f 36//32 32//32 33//32
f 30//33 34//33 37//33
f 35//34 31//34 37//34
f 35//35 37//35 34//35
f 30//36 37//36 31//36
f 44//37 42//37 43//37 45//37
f 38//38 40//38 41//38 39//38
f 40//39 44//39 45//39 41//39
f 45//40 43//40 39//40 41//40
f 40//41 38//41 42//41 44//41
f 43//42 42//42 38//42 39//42
f 43//43 39//43 46//43
f 39//44 38//44 46//44
f 38//45 42//45 46//45
f 46//46 42//46 43//46
f 40//47 44//47 47//47
f 45//48 41//48 47//48
f 45//49 47//49 44//49
f 40//50 47//50 41//50
f 54//37 52//37 53//37 55//37
f 48//38 50//38 51//38 49//38
f 50//39 54//39 55//39 51//39
f 55//40 53//40 49//40 51//40
f 50//41 48//41 52//41 54//41
f 53//42 52//42 48//42 49//42
f 53//43 49//43 56//43
f 49//44 48//44 56//44
f 48//45 52//45 56//45
f 56//46 52//46 53//46
f 50//47 54//47 57//47
f 55//48 51//48 57//48
f 55//49 57//49 54//49
f 50//50 57//50 51//50
f 65//50 58//50 64//50
f 60//49 58//49 61//49
f 60//48 64//48 58//48
f 65//47 61//47 58//47
f 59//46 63//46 62//46
f 67//45 63//45 59//45
f 66//44 67//44 59//44
f 62//43 66//43 59//43
f 62//42 63//42 67//42 66//42
f 65//41 67//41 63//41 61//41
f 60//40 62//40 66//40 64//40
f 65//39 61//39 60//39 64//39
f 67//38 65//38 64//38 66//38
f 61//37 63//37 62//37 60//37
f 68//21 69//21 71//21 70//21
f 69//51 24//51 25//51 71//51
f 71//52 25//52 21//52 70//52
f 20//53 68//53 70//53 21//53
f 68//54 20//54 24//54 69//54
f 72//21 73//21 75//21 74//21
f 22//55 72//55 74//55 23//55
f 73//56 26//56 27//56 75//56
f 23//57 74//57 75//57 27//57
f 26//58 73//58 72//58 22//58
